# xmcd
#
# Track frame offsets:
#	150
#	15803
#	45795
#	64893
#	81055
#	102058
#	132660
#	142880
#	163403
#	182533
#
# Disc length: 2597 seconds
#
# Revision: 1
# Processed by: cddbd v1.5.2PL0 Copyright (c) Steve Scherf et al.
# Submitted via: EZCDAudioConverter 8.0.2.1
#
DISCID=750a230a
DTITLE=Various Artist - Đại Hội Nhạc Trẻ Hải Âu
DYEAR=1992
DGENRE=World Pop
TTITLE0=Ngọc Lan - Sóng biển muôn trùng
TTITLE1=Kiều Nga - Vũ khúc xuân nồng
TTITLE2=Trung Thành - Những mùa nắng đẹp
TTITLE3=Kiều Nga - Tình đẹp thiết tha
TTITLE4=Kenny Thái - Thu tương tư
TTITLE5=Kiều Nga - Tình đẹp xót xa
TTITLE6=Kenny Thái - Nguồn sống đời anh
TTITLE7=Tuyet Nhung - Chỉ có anh trong tim
TTITLE8=Ngọc Lan - Vắng bóng người yêu
TTITLE9=Thúy Vi - Nụ hôn tình nồng
EXTD=
EXTT0=
EXTT1=
EXTT2=
EXTT3=
EXTT4=
EXTT5=
EXTT6=
EXTT7=
EXTT8=
EXTT9=
PLAYORDER=
